<svg xmlns="http://www.w3.org/2000/svg" viewBox="0 0 512 512">
  <rect width="512" height="512" rx="96" fill="#E07060"/>
  <g transform="translate(256,220)" fill="none" stroke="none">
    <path d="M0,-90 C30,-90 40,-50 0,-10 C-40,-50 -30,-90 0,-90Z" fill="#fff"/>
    <path d="M90,0 C90,30 50,40 10,0 C50,-40 90,-30 90,0Z" fill="#fff"/>
    <path d="M0,90 C-30,90 -40,50 0,10 C40,50 30,90 0,90Z" fill="#fff"/>
    <path d="M-90,0 C-90,-30 -50,-40 -10,0 C-50,40 -90,30 -90,0Z" fill="#fff"/>
    <circle cx="0" cy="0" r="18" fill="#E07060"/>
    <circle cx="0" cy="0" r="12" fill="none" stroke="#fff" stroke-width="6"/>
  </g>
  <text x="256" y="420" text-anchor="middle" font-family="Georgia,serif" font-size="72" font-weight="700" fill="#fff" letter-spacing="8">OE</text>
</svg>
